<mxfile modified="2020-10-04T19:32:21.929Z" host="app.diagrams.net" agent="5.0 (Windows NT 10.0; Win64; x64) AppleWebKit/537.36 (KHTML, like Gecko) Chrome/85.0.4183.121 Safari/537.36" etag="koT3Sy_VLJ1DFrU9SlSQ" version="13.7.6" type="github">
  <diagram id="f106602c-feb2-e66a-4537-3a34d633f6aa" name="Page-1">
    <mxGraphModel dx="1038" dy="580" grid="1" gridSize="10" guides="1" tooltips="1" connect="1" arrows="1" fold="1" page="1" pageScale="1" pageWidth="1169" pageHeight="827" background="#ffffff" math="0" shadow="0">
      <root>
        <mxCell id="0" />
        <mxCell id="1" parent="0" />
        <mxCell id="14" value="" style="fillColor=#F6F6F6;strokeColor=none;shadow=0;gradientColor=none;fontSize=14;align=left;spacing=10;fontColor=#717171;9E9E9E;verticalAlign=top;spacingTop=-4;fontStyle=0;spacingLeft=40;html=1;" parent="1" vertex="1">
          <mxGeometry x="40" y="99" width="870" height="480" as="geometry" />
        </mxCell>
        <mxCell id="771" value="1" style="shape=ellipse;fillColor=#ffffff;strokeColor=#BDBDBD;strokeWidth=2;shadow=0;gradientColor=none;fontColor=#757575;align=center;html=1;fontStyle=1;spacingTop=-1;" parent="1" vertex="1">
          <mxGeometry x="200" y="329" width="20" height="20" as="geometry" />
        </mxCell>
        <mxCell id="779" value="" style="fillColor=#ffffff;strokeColor=#BDBDBD;strokeWidth=1;shadow=0;gradientColor=none;fontSize=10;fontColor=#9E9E9E;align=center;html=1;" parent="1" vertex="1">
          <mxGeometry x="250" y="620" width="600" height="70" as="geometry" />
        </mxCell>
        <mxCell id="780" value="1 Commit code" style="strokeColor=none;fillColor=none;fontColor=#757575;align=left;html=1;fontStyle=0;spacingLeft=5;fontSize=11;verticalAlign=top;whiteSpace=wrap;spacingRight=5;" parent="779" vertex="1">
          <mxGeometry width="200" height="30" relative="1" as="geometry" />
        </mxCell>
        <mxCell id="781" value="2 Detect code change" style="strokeColor=none;fillColor=none;fontColor=#757575;align=left;html=1;fontStyle=0;spacingLeft=5;fontSize=11;verticalAlign=top;whiteSpace=wrap;spacingRight=5;" parent="779" vertex="1">
          <mxGeometry width="200" height="30" relative="1" as="geometry">
            <mxPoint y="30" as="offset" />
          </mxGeometry>
        </mxCell>
        <mxCell id="782" value="3 Build immutable image" style="strokeColor=none;fillColor=none;fontColor=#757575;align=left;html=1;fontStyle=0;spacingLeft=5;fontSize=11;verticalAlign=top;whiteSpace=wrap;spacingRight=5;" parent="779" vertex="1">
          <mxGeometry width="200" height="30" relative="1" as="geometry">
            <mxPoint x="200" as="offset" />
          </mxGeometry>
        </mxCell>
        <mxCell id="783" value="4 Launch test instance from image" style="strokeColor=none;fillColor=none;fontColor=#757575;align=left;html=1;fontStyle=0;spacingLeft=5;fontSize=11;verticalAlign=top;whiteSpace=wrap;spacingRight=5;" parent="779" vertex="1">
          <mxGeometry width="200" height="30" relative="1" as="geometry">
            <mxPoint x="200" y="30" as="offset" />
          </mxGeometry>
        </mxCell>
        <mxCell id="784" value="5 Run tests" style="strokeColor=none;fillColor=none;fontColor=#757575;align=left;html=1;fontStyle=0;spacingLeft=5;fontSize=11;verticalAlign=top;whiteSpace=wrap;spacingRight=5;" parent="779" vertex="1">
          <mxGeometry width="200" height="30" relative="1" as="geometry">
            <mxPoint x="400" as="offset" />
          </mxGeometry>
        </mxCell>
        <mxCell id="785" value="6 Perform rolling update of image to autoscaler" style="strokeColor=none;fillColor=none;fontColor=#757575;align=left;html=1;fontStyle=0;spacingLeft=5;fontSize=11;verticalAlign=top;whiteSpace=wrap;spacingRight=5;" parent="779" vertex="1">
          <mxGeometry width="200" height="30" relative="1" as="geometry">
            <mxPoint x="400" y="30" as="offset" />
          </mxGeometry>
        </mxCell>
        <mxCell id="n8gKRXEXCiNkXEtsKdUm-794" style="edgeStyle=orthogonalEdgeStyle;rounded=0;orthogonalLoop=1;jettySize=auto;html=1;exitX=1;exitY=0.5;exitDx=0;exitDy=0;entryX=0;entryY=0.5;entryDx=0;entryDy=0;strokeColor=#4284F3;strokeWidth=2;" edge="1" parent="1" source="n8gKRXEXCiNkXEtsKdUm-789" target="n8gKRXEXCiNkXEtsKdUm-791">
          <mxGeometry relative="1" as="geometry" />
        </mxCell>
        <mxCell id="n8gKRXEXCiNkXEtsKdUm-789" value="" style="strokeColor=#dddddd;shadow=1;strokeWidth=1;rounded=1;absoluteArcSize=1;arcSize=2;" vertex="1" parent="1">
          <mxGeometry x="52.5" y="329" width="127.5" height="60" as="geometry" />
        </mxCell>
        <mxCell id="n8gKRXEXCiNkXEtsKdUm-790" value="&lt;font color=&quot;#000000&quot;&gt;Conjunto &lt;br&gt;de imagens&lt;/font&gt;" style="dashed=0;connectable=0;html=1;fillColor=#5184F3;strokeColor=none;shape=mxgraph.gcp2.hexIcon;prIcon=cloud_sql;part=1;labelPosition=right;verticalLabelPosition=middle;align=left;verticalAlign=middle;spacingLeft=5;fontColor=#999999;fontSize=12;" vertex="1" parent="n8gKRXEXCiNkXEtsKdUm-789">
          <mxGeometry y="0.5" width="44" height="39" relative="1" as="geometry">
            <mxPoint x="5" y="-19.5" as="offset" />
          </mxGeometry>
        </mxCell>
        <mxCell id="n8gKRXEXCiNkXEtsKdUm-804" style="edgeStyle=orthogonalEdgeStyle;rounded=0;orthogonalLoop=1;jettySize=auto;html=1;exitX=1;exitY=0.5;exitDx=0;exitDy=0;entryX=0;entryY=0.5;entryDx=0;entryDy=0;strokeColor=#4284F3;strokeWidth=2;" edge="1" parent="1" source="n8gKRXEXCiNkXEtsKdUm-791" target="n8gKRXEXCiNkXEtsKdUm-800">
          <mxGeometry relative="1" as="geometry" />
        </mxCell>
        <mxCell id="n8gKRXEXCiNkXEtsKdUm-807" style="edgeStyle=orthogonalEdgeStyle;rounded=0;orthogonalLoop=1;jettySize=auto;html=1;exitX=1;exitY=0.5;exitDx=0;exitDy=0;entryX=0;entryY=0.5;entryDx=0;entryDy=0;strokeColor=#4284F3;strokeWidth=2;" edge="1" parent="1" source="n8gKRXEXCiNkXEtsKdUm-791" target="n8gKRXEXCiNkXEtsKdUm-802">
          <mxGeometry relative="1" as="geometry">
            <Array as="points">
              <mxPoint x="379" y="359" />
              <mxPoint x="379" y="460" />
            </Array>
          </mxGeometry>
        </mxCell>
        <mxCell id="n8gKRXEXCiNkXEtsKdUm-791" value="" style="strokeColor=#dddddd;shadow=1;strokeWidth=1;rounded=1;absoluteArcSize=1;arcSize=2;" vertex="1" parent="1">
          <mxGeometry x="230" y="329" width="127.5" height="60" as="geometry" />
        </mxCell>
        <mxCell id="n8gKRXEXCiNkXEtsKdUm-792" value="&lt;font color=&quot;#000000&quot;&gt;Conjunto &lt;br&gt;de imagens&lt;br&gt;rotulado&lt;br&gt;&lt;/font&gt;" style="dashed=0;connectable=0;html=1;fillColor=#5184F3;strokeColor=none;shape=mxgraph.gcp2.hexIcon;prIcon=cloud_sql;part=1;labelPosition=right;verticalLabelPosition=middle;align=left;verticalAlign=middle;spacingLeft=5;fontColor=#999999;fontSize=12;" vertex="1" parent="n8gKRXEXCiNkXEtsKdUm-791">
          <mxGeometry y="0.5" width="44" height="39" relative="1" as="geometry">
            <mxPoint x="5" y="-19.5" as="offset" />
          </mxGeometry>
        </mxCell>
        <mxCell id="n8gKRXEXCiNkXEtsKdUm-798" value="" style="strokeColor=#dddddd;shadow=1;strokeWidth=1;rounded=1;absoluteArcSize=1;arcSize=2;" vertex="1" parent="1">
          <mxGeometry x="585" y="240" width="150" height="60" as="geometry" />
        </mxCell>
        <mxCell id="n8gKRXEXCiNkXEtsKdUm-799" value="&lt;font color=&quot;#000000&quot;&gt;Modelo&lt;/font&gt;" style="dashed=0;connectable=0;html=1;fillColor=#5184F3;strokeColor=none;shape=mxgraph.gcp2.hexIcon;prIcon=cloud_machine_learning;part=1;labelPosition=right;verticalLabelPosition=middle;align=left;verticalAlign=middle;spacingLeft=5;fontColor=#999999;fontSize=12;" vertex="1" parent="n8gKRXEXCiNkXEtsKdUm-798">
          <mxGeometry y="0.5" width="44" height="39" relative="1" as="geometry">
            <mxPoint x="5" y="-19.5" as="offset" />
          </mxGeometry>
        </mxCell>
        <mxCell id="n8gKRXEXCiNkXEtsKdUm-809" style="edgeStyle=orthogonalEdgeStyle;rounded=0;orthogonalLoop=1;jettySize=auto;html=1;exitX=1;exitY=0.5;exitDx=0;exitDy=0;entryX=0;entryY=0.5;entryDx=0;entryDy=0;strokeColor=#4284F3;strokeWidth=2;" edge="1" parent="1" source="n8gKRXEXCiNkXEtsKdUm-800" target="n8gKRXEXCiNkXEtsKdUm-798">
          <mxGeometry relative="1" as="geometry" />
        </mxCell>
        <mxCell id="n8gKRXEXCiNkXEtsKdUm-800" value="" style="strokeColor=#dddddd;shadow=1;strokeWidth=1;rounded=1;absoluteArcSize=1;arcSize=2;" vertex="1" parent="1">
          <mxGeometry x="400" y="240" width="127.5" height="60" as="geometry" />
        </mxCell>
        <mxCell id="n8gKRXEXCiNkXEtsKdUm-801" value="&lt;font color=&quot;#000000&quot;&gt;Conjunto de&lt;br&gt;&amp;nbsp;treinamento&lt;br&gt;&lt;/font&gt;" style="dashed=0;connectable=0;html=1;fillColor=#5184F3;strokeColor=none;shape=mxgraph.gcp2.hexIcon;prIcon=cloud_sql;part=1;labelPosition=right;verticalLabelPosition=middle;align=left;verticalAlign=middle;spacingLeft=5;fontColor=#999999;fontSize=12;" vertex="1" parent="n8gKRXEXCiNkXEtsKdUm-800">
          <mxGeometry y="0.5" width="44" height="39" relative="1" as="geometry">
            <mxPoint x="5" y="-19.5" as="offset" />
          </mxGeometry>
        </mxCell>
        <mxCell id="n8gKRXEXCiNkXEtsKdUm-814" style="edgeStyle=orthogonalEdgeStyle;rounded=0;orthogonalLoop=1;jettySize=auto;html=1;exitX=1;exitY=0.5;exitDx=0;exitDy=0;entryX=0.25;entryY=1;entryDx=0;entryDy=0;strokeColor=#4284F3;strokeWidth=2;" edge="1" parent="1" source="n8gKRXEXCiNkXEtsKdUm-802" target="n8gKRXEXCiNkXEtsKdUm-798">
          <mxGeometry relative="1" as="geometry" />
        </mxCell>
        <mxCell id="n8gKRXEXCiNkXEtsKdUm-802" value="" style="strokeColor=#dddddd;shadow=1;strokeWidth=1;rounded=1;absoluteArcSize=1;arcSize=2;" vertex="1" parent="1">
          <mxGeometry x="400" y="430" width="127.5" height="60" as="geometry" />
        </mxCell>
        <mxCell id="n8gKRXEXCiNkXEtsKdUm-803" value="&lt;font color=&quot;#000000&quot;&gt;Conjunto de&lt;br&gt;teste&lt;br&gt;&lt;/font&gt;" style="dashed=0;connectable=0;html=1;fillColor=#5184F3;strokeColor=none;shape=mxgraph.gcp2.hexIcon;prIcon=cloud_sql;part=1;labelPosition=right;verticalLabelPosition=middle;align=left;verticalAlign=middle;spacingLeft=5;fontColor=#999999;fontSize=12;" vertex="1" parent="n8gKRXEXCiNkXEtsKdUm-802">
          <mxGeometry y="0.5" width="44" height="39" relative="1" as="geometry">
            <mxPoint x="5" y="-19.5" as="offset" />
          </mxGeometry>
        </mxCell>
        <mxCell id="n8gKRXEXCiNkXEtsKdUm-808" value="2" style="shape=ellipse;fillColor=#ffffff;strokeColor=#BDBDBD;strokeWidth=2;shadow=0;gradientColor=none;fontColor=#757575;align=center;html=1;fontStyle=1;spacingTop=-1;" vertex="1" parent="1">
          <mxGeometry x="390" y="329" width="20" height="20" as="geometry" />
        </mxCell>
        <mxCell id="n8gKRXEXCiNkXEtsKdUm-810" value="3" style="shape=ellipse;fillColor=#ffffff;strokeColor=#BDBDBD;strokeWidth=2;shadow=0;gradientColor=none;fontColor=#757575;align=center;html=1;fontStyle=1;spacingTop=-1;" vertex="1" parent="1">
          <mxGeometry x="540" y="230" width="20" height="20" as="geometry" />
        </mxCell>
        <mxCell id="n8gKRXEXCiNkXEtsKdUm-812" style="edgeStyle=orthogonalEdgeStyle;rounded=0;orthogonalLoop=1;jettySize=auto;html=1;exitX=1;exitY=0.75;exitDx=0;exitDy=0;entryX=0.562;entryY=0.997;entryDx=0;entryDy=0;entryPerimeter=0;strokeColor=#4284F3;strokeWidth=2;" edge="1" parent="1" source="n8gKRXEXCiNkXEtsKdUm-800" target="n8gKRXEXCiNkXEtsKdUm-800">
          <mxGeometry relative="1" as="geometry" />
        </mxCell>
        <mxCell id="n8gKRXEXCiNkXEtsKdUm-813" value="4" style="shape=ellipse;fillColor=#ffffff;strokeColor=#BDBDBD;strokeWidth=2;shadow=0;gradientColor=none;fontColor=#757575;align=center;html=1;fontStyle=1;spacingTop=-1;" vertex="1" parent="1">
          <mxGeometry x="540" y="329" width="20" height="20" as="geometry" />
        </mxCell>
        <mxCell id="n8gKRXEXCiNkXEtsKdUm-816" value="5" style="shape=ellipse;fillColor=#ffffff;strokeColor=#BDBDBD;strokeWidth=2;shadow=0;gradientColor=none;fontColor=#757575;align=center;html=1;fontStyle=1;spacingTop=-1;" vertex="1" parent="1">
          <mxGeometry x="540" y="420" width="20" height="20" as="geometry" />
        </mxCell>
      </root>
    </mxGraphModel>
  </diagram>
</mxfile>
